# xmcd
#
# Track frame offsets:
#	150
#	14837
#	27912
#	39570
#	54775
#	71082
#	83872
#	97710
#	114472
#	129977
#	145622
#	160410
#	173535
#	185310
#	200507
#	216780
#	229670
#	246360
#	260200
#	275715
#
# Disc length: 3880 seconds
#
# Revision: 1
# Processed by: cddbd v1.5.2PL0 Copyright (c) Steve Scherf et al.
# Submitted via: audiograbber 1.83.01
#
DISCID=190f2614
DTITLE=Reba McEntire - PS1034
DYEAR=1900
DGENRE=Karaoke
TTITLE0=McEntire, Reba w/Vocal - I Know How He Feels
TTITLE1=McEntire, Reba w/Vocal - Sunday Kind Of Love
TTITLE2=McEntire, Reba w/Vocal - Can't Even Get The Blues No More
TTITLE3=McEntire, Reba w/Vocal - What Am I Gonna Do About You
TTITLE4=McEntire, Reba w/Vocal - Have I Got A Deal For You
TTITLE5=McEntire, Reba w/Vocal - Little Rock
TTITLE6=McEntire, Reba w/Vocal - Last One To Know, The
TTITLE7=McEntire, Reba w/Vocal - Somebody Should Leave
TTITLE8=McEntire, Reba w/Vocal - Whoever's In New England
TTITLE9=McEntire, Reba w/Vocal - One Promise Too Late
TTITLE10=McEntire, Reba - I Know How He Feels
TTITLE11=McEntire, Reba - Sunday Kind Of Love
TTITLE12=McEntire, Reba - Can't Even Get The Blues No More
TTITLE13=McEntire, Reba - What Am I Gonna Do About You
TTITLE14=McEntire, Reba - Have I Got A Deal For You
TTITLE15=McEntire, Reba - Little Rock
TTITLE16=McEntire, Reba - Last One To Know, The
TTITLE17=McEntire, Reba - Somebody Should Leave
TTITLE18=McEntire, Reba - Whoever's In New England
TTITLE19=McEntire, Reba - One Promise Too Late
EXTD=
EXTT0=
EXTT1=
EXTT2=
EXTT3=
EXTT4=
EXTT5=
EXTT6=
EXTT7=
EXTT8=
EXTT9=
EXTT10=
EXTT11=
EXTT12=
EXTT13=
EXTT14=
EXTT15=
EXTT16=
EXTT17=
EXTT18=
EXTT19=
PLAYORDER=
